<svg id="グループ_34" data-name="グループ 34" xmlns="http://www.w3.org/2000/svg" xmlns:xlink="http://www.w3.org/1999/xlink" width="147.906" height="23.608" viewBox="0 0 147.906 23.608">
  <defs>
    <clipPath id="clip-path">
      <rect id="長方形_2" data-name="長方形 2" width="147.906" height="23.608" fill="none"/>
    </clipPath>
  </defs>
  <path id="パス_1" data-name="パス 1" d="M209.594,13.576H237.08v3.845h-2.137V15.5H218.6v3.606h12.637v2.844H218.594V27h16.432V25.74h2.054V29.2H210.068V27h3.159V15.63h-2.844Z" transform="translate(-152.401 -9.872)" fill="#181d57"/>
  <path id="パス_2" data-name="パス 2" d="M442.31,15.892l.948,1.264h2.064V29.027H442.31v1.714h27.211V27.978h-3.674v1.341H451V17.313h2.843l.931-1.422Z" transform="translate(-321.615 -11.555)" fill="#181d57"/>
  <g id="グループ_2" data-name="グループ 2">
    <g id="グループ_1" data-name="グループ 1" clip-path="url(#clip-path)">
      <path id="パス_3" data-name="パス 3" d="M333.748,16.595a18.68,18.68,0,0,1,4.822-.523q8.562,0,10.615,3.859h1.261V15.7h-1.261a12.041,12.041,0,0,1-1.73,1.159,27.889,27.889,0,0,0-9-1.329,29.018,29.018,0,0,0-11.671,2.2q-4.816,2.1-5.025,5.071h-.01c0,.017,0,.033.005.049s0,.033-.005.049h.01q.217,2.973,5.025,5.071a29.018,29.018,0,0,0,11.671,2.2,27.889,27.889,0,0,0,9-1.329,12.018,12.018,0,0,1,1.73,1.159h1.261V25.76h-1.261q-2.053,3.859-10.615,3.859a18.68,18.68,0,0,1-4.822-.523,6.258,6.258,0,0,1,0-12.5" transform="translate(-233.95 -11.292)" fill="#181d57"/>
      <rect id="長方形_1" data-name="長方形 1" width="42.967" height="2.843" transform="translate(0.325 10.339)" fill="#181d57"/>
      <path id="パス_4" data-name="パス 4" d="M89.437,3.073,93.584,5.6h.037V.9h5.032q3.336,0,4.766,1.271a6.816,6.816,0,0,1,1.889,4.149h.9L105.8,0H85.677V.9h3.76Z" transform="translate(-62.298 0)" fill="#181d57"/>
      <path id="パス_5" data-name="パス 5" d="M89.437,66.833l4.147-2.843v.087h.037v4.7h5.032q3.336,0,4.766-1.271a6.818,6.818,0,0,0,1.889-4.149h.9l-.406,6.32H85.677v-.9h3.76Z" transform="translate(-62.298 -46.068)" fill="#181d57"/>
      <path id="パス_6" data-name="パス 6" d="M16.771,2.757,12.624,6.232V5.6h-.037V.9H7.556Q4.219.9,2.789,2.172A6.816,6.816,0,0,0,.9,6.32H0L.406,0H20.531V.9h-3.76Z" transform="translate(0 0)" fill="#181d57"/>
      <path id="パス_7" data-name="パス 7" d="M16.771,66.833l-4.147-2.843v.087h-.037v4.7H7.556q-3.336,0-4.766-1.271A6.818,6.818,0,0,1,.9,63.356H0l.406,6.32H20.531v-.9h-3.76Z" transform="translate(0 -46.068)" fill="#181d57"/>
      <path id="パス_8" data-name="パス 8" d="M59.659,1.752V4.279l4.251-2.1Z" transform="translate(-43.38 -1.274)" fill="#181d57"/>
      <path id="パス_9" data-name="パス 9" d="M60.238,78.379V75.851l4.251,2.1Z" transform="translate(-43.801 -55.153)" fill="#181d57"/>
      <path id="パス_10" data-name="パス 10" d="M89.961,1.752V4.279l-4.251-2.1Z" transform="translate(-62.322 -1.274)" fill="#181d57"/>
      <path id="パス_11" data-name="パス 11" d="M89.383,78.379V75.851l-4.251,2.1Z" transform="translate(-61.901 -55.153)" fill="#181d57"/>
      <path id="パス_12" data-name="パス 12" d="M41.072,14.056c0-6.02,3.861-10.9,8.624-10.9-6.358,0-11.513,4.88-11.513,10.9s5.154,10.9,11.513,10.9c-4.763,0-8.624-4.88-8.624-10.9" transform="translate(-27.764 -2.295)" fill="#181d57"/>
      <path id="パス_13" data-name="パス 13" d="M89,14.056c0,6.02-3.861,10.9-8.624,10.9,6.358,0,11.513-4.88,11.513-10.9s-5.154-10.9-11.513-10.9c4.763,0,8.624,4.88,8.624,10.9" transform="translate(-58.442 -2.295)" fill="#181d57"/>
      <path id="パス_14" data-name="パス 14" d="M51.693,2a11.144,11.144,0,0,0-10.9,11.374,10.91,10.91,0,1,0,21.8,0A11.144,11.144,0,0,0,51.693,2m0,22.088c-5.219,0-9.449-4.8-9.449-10.714S46.474,2.657,51.693,2.657s9.449,4.8,9.449,10.714-4.231,10.714-9.449,10.714" transform="translate(-29.662 -1.453)" fill="#181d57"/>
    </g>
  </g>
</svg>
